<mxfile host="app.diagrams.net" modified="2023-12-10T17:20:43.452Z" agent="Mozilla/5.0 (Windows NT 10.0; Win64; x64; rv:120.0) Gecko/20100101 Firefox/120.0" version="22.1.7" etag="NJhWFi4lU-eevUUgsP3p" type="github">
  <diagram name="Page-1" id="imdO5zCbBogqotmYkmCI">
    <mxGraphModel>
      <root>
        <mxCell id="0" />
        <mxCell id="1" parent="0" />
      </root>
    </mxGraphModel>
  </diagram>
</mxfile>
